<?xml version="1.0" encoding="UTF-8" standalone="no"?>
<!DOCTYPE svg PUBLIC "-//W3C//DTD SVG 1.1//EN" "http://www.w3.org/Graphics/SVG/1.1/DTD/svg11.dtd">
<svg width="100%" height="100%" viewBox="0 0 3508 4961" version="1.1" xmlns="http://www.w3.org/2000/svg" xmlns:xlink="http://www.w3.org/1999/xlink" xml:space="preserve" xmlns:serif="http://www.serif.com/" style="fill-rule:evenodd;clip-rule:evenodd;stroke-linejoin:round;stroke-miterlimit:2;">
    <g transform="matrix(1.596916,0,0,1.596916,-1045.631054,-1110.490262)">
        <g id="_0286ba-6c75-49b4-b68f-08ee039c09fe.jpg" serif:id="0286ba-6c75-49b4-b68f-08ee039c09fe.jpg" transform="matrix(8.126252,0,0,8.126252,112.139977,618.511869)">
            <path d="M289.297,261.776C292.267,263.902 292.556,264.503 294.522,263.54C297.356,262.15 297.395,262.099 300.548,262.233C301.156,262.416 301.765,262.6 302.373,262.784C310.245,267.053 307.328,276.182 300.561,277.762C296.229,278.774 290.774,274.626 291.214,269.467C291.344,267.942 291.872,267.471 289.389,265.656C279.53,258.45 279.68,258.286 269.883,251.012C267.372,249.148 267.511,248.981 262.569,245.408C254.486,239.562 251.89,231.723 249.188,226.656C248.012,224.453 244.674,215.828 243.446,214.551C242.175,213.229 230.88,207.177 228.48,204.52C226.807,202.666 226.786,202.71 225.127,200.824C222.255,197.559 222.514,197.372 218.344,191.608C217.627,190.617 216.52,189.088 210.23,178.654C208.081,175.09 208.25,174.775 207.456,174.706C207.305,174.693 206.525,174.626 205.858,175.74C203.134,180.285 203.754,180.577 203.755,190.5C203.756,216.786 203.649,216.879 204.167,217.675C205.093,219.1 212.37,225.949 214.836,228.106C215.776,228.928 215.795,228.888 226.813,238.127C227.704,238.875 228.997,239.765 233.345,243.683C234.144,244.403 234.224,244.304 243.586,252.401C245.406,253.976 245.605,253.844 251.504,253.788C256.02,253.744 257.154,253.987 257.182,258.508C257.223,265.333 257.672,268.092 253.495,268.393C246.836,268.871 245.327,268.338 244.66,268.102C240.615,266.671 243.617,257.189 241.993,255.181C241.037,254 240.464,253.828 236.156,249.927C234.943,248.828 234.435,248.122 233.713,249.583C233.467,250.079 233.777,250.115 233.777,256.502C233.778,263.019 233.814,262.999 233.748,269.502C233.747,269.657 233.577,271.136 234.237,271.77C235.705,273.179 239.334,270.754 239.518,276.5C239.755,283.84 239.746,286.821 235.524,286.938C227.047,287.173 226.423,286.631 225.835,286.121C225.283,285.641 224.567,285.313 224.749,276.502C224.875,270.412 229.033,273.23 230.242,271.344C230.804,270.468 230.527,270.365 230.673,249.501C230.696,246.104 230.994,245.715 227.857,243.073C225.178,240.815 225.241,240.352 224.515,240.667C223.463,241.124 223.629,241.362 223.664,242.507C223.68,243.067 223.817,247.621 223.706,249.515C223.594,251.427 223.8,251.399 224.392,252.551C226.403,256.465 224.573,261.184 220.499,263.498C220.001,263.78 214.876,266.692 213.348,263.583C212.199,261.244 211.143,254.366 216.704,250.849C218.755,249.552 220.632,250.904 220.649,247.498C220.697,237.727 220.551,237.477 220.117,236.732C219.558,235.773 216.669,233.871 212.671,230.305C203.054,221.727 203.327,221.315 202.597,221.168C201.195,220.885 200.18,222.052 196.09,226.077C191.583,230.513 186.713,234.279 185.856,234.941C183.249,236.957 185.498,238.241 187.217,239.812C195.237,247.139 202.172,254.215 202.419,254.561C203.512,256.096 203.645,256.19 203.703,267.5C203.775,281.39 203.143,281.811 205.163,283.84C205.762,284.441 205.869,284.324 212.798,291.209C215.578,293.971 218.083,292.441 222.46,292.858C227.064,293.296 225.836,297.842 225.971,302.496C226.118,307.546 224.369,307.632 216.5,307.486C209.571,307.357 211.116,304.435 211.076,297.5C211.06,294.697 211.592,294.371 209.594,292.405C206.63,289.49 205.898,288.707 205.588,288.375C204.264,286.958 203.402,287.652 203.513,289.501C204.326,303.055 202.809,311.122 204.346,312.65C204.8,313.101 208.489,314.669 209.618,318.462C210.907,322.792 207.163,329.28 200.552,328.21C195.066,327.322 191.118,318.865 197.782,313.895C199.173,312.858 200.447,313.249 200.509,310.5C200.548,308.742 200.477,286.728 200.598,284.498C200.69,282.796 201.173,281.939 199.465,282.082C198.655,282.15 198.926,282.608 192.123,289.1C189.035,292.046 187.989,292.255 188.425,294.516C189.17,298.384 189.039,304.575 187.933,305.852C186.523,307.481 183.366,306.855 179.502,306.976C173.63,307.16 174.047,304.802 174.097,298.495C174.134,293.931 174.081,292.25 179.496,292.219C183.49,292.196 183.907,292.725 186.783,289.776C187.731,288.804 187.772,288.869 198.956,277.955C200.784,276.171 200.424,275.83 200.457,265.5C200.483,257.43 200.707,257.139 198.815,255.197C196.152,252.465 190.426,246.996 189.688,246.291C187.244,243.956 186.68,243.539 185.594,242.38C185.054,241.802 185.217,241.573 184.522,241.422C182.963,241.083 183.19,241.891 183.27,243.484C183.485,247.8 182.987,249.558 184.705,250.054C185.898,250.398 187.658,250.275 189.89,253.214C192.789,257.029 191.378,263.989 189.603,264.716C186.587,265.952 178.525,262.161 178.765,255.516C178.879,252.346 180.517,252.678 180.424,249.503C180.322,245.986 180.271,246.004 180.433,242.503C180.521,240.593 179.74,239.909 178.332,241.211C174.141,245.087 173.17,244.836 173.249,248.507C173.509,260.49 172.999,270.502 173.62,271.428C174.8,273.188 179.059,270.255 179.235,276.503C179.451,284.153 179.01,284.972 178.663,285.615C178.031,286.787 175.804,286.916 175.533,286.931C174.085,287.015 168.199,287.062 167.424,286.893C164.77,286.316 164.407,284.645 164.484,278.5C164.504,276.929 164.373,274.991 165.395,273.408C166.085,272.338 169.224,272.218 169.736,271.755C170.396,271.156 170.186,270.988 170.277,256.499C170.296,253.485 170.425,253.504 170.458,250.505C170.484,248.209 168.651,249.41 168.504,249.507C168.254,249.67 164.597,252.928 164.26,253.229C161.855,255.371 161.24,255.277 161.325,258.504C161.529,266.337 161.502,268.52 156.5,268.542C149.133,268.574 147.669,268.421 147.02,265.612C146.904,265.109 146.374,257.423 147.341,255.411C148.803,252.368 156.757,254.749 159.365,253.259C160.51,252.604 163.933,249.112 181.533,234.539C190.549,227.073 190.522,227.061 199.02,219.019C200.767,217.366 200.546,217.012 200.545,204.5C200.543,180.951 200.684,180.91 200.231,179.595C200.059,179.096 198.009,174.135 196.58,174.737C195.202,175.317 193.253,180.19 187.719,188.641C176.211,206.215 174.295,205.922 162.74,212.895C158.71,215.327 159.648,217.705 153.095,230.302C147.82,240.442 147.676,240.6 135.7,249.762C134.886,250.385 134.858,250.335 125.436,257.425C124.976,257.77 124.988,257.772 119.713,261.779C116.593,264.149 116.585,264.106 113.475,266.472C111.028,268.334 114.581,272.121 109.287,276.202C102.943,281.093 94.12,273.957 97.494,266.497C98.916,263.351 102.982,261.415 106.55,262.271C106.865,262.347 107.158,262.499 107.473,262.574C109.941,263.793 110.116,264.933 112.393,263.354C113.471,262.606 113.377,262.516 125.547,253.559C126.602,252.782 131.814,248.731 132.357,248.309C139.478,242.774 145.678,239.413 150.453,228.479C150.472,228.436 153.181,222.939 153.418,222.457C153.804,221.673 155.387,219.095 155.185,218.57C154.593,217.027 153.925,218.632 146.703,221.958C138.355,225.802 131.975,223.298 129.743,224.854C129.572,224.973 123.921,230.371 123.658,231.556C123.526,232.15 124.638,240.065 116.462,241.297C113.815,241.696 110.599,241.038 110.078,239.699C109.053,237.067 111.746,228.141 119.481,228.864C122.007,229.1 121.941,228.573 123.811,226.723C124.373,226.166 124.635,226.327 124.738,225.535C124.756,225.397 124.891,224.35 123.56,224.253C123.116,224.221 112.465,224.342 111.501,224.353C107.739,224.396 109.015,227.404 105.543,229.561C96.562,235.141 88.1,222.011 97.29,216.137C100.693,213.961 105.284,214.977 107.62,218.413C109.063,220.536 108.919,221.138 111.494,221.149C137.826,221.253 138.262,221.158 140.533,220.666C141.519,220.453 143.267,220.758 155.606,213.669C156.759,213.006 159.22,211.274 165.559,207.594C171.324,204.247 173.683,201.904 174.294,201.297C178.629,196.99 178.24,196.673 182.622,190.585C183.237,189.73 183.282,189.668 189.897,179.611C190.139,179.243 190.507,178.929 190.614,178.501C190.684,178.221 190.604,177.851 190.382,177.665C189.556,176.973 188.87,178.534 182.41,182.346C174.185,187.199 162.413,190.982 158.469,191.194C150.293,191.632 149.628,190.311 147.13,193.16C145.286,195.263 144.805,195.646 144.905,197.486C145.031,199.782 145.561,203.045 140.726,205.928C137.958,207.578 132.972,207.467 132.241,205.63C131.103,202.772 132.995,194.7 139.462,194.161C142.188,193.934 142.421,194.387 143.324,193.354C143.438,193.223 144.985,191.452 142.534,191.321C141.768,191.28 133.304,191.316 132.501,191.319C129.732,191.331 129.533,191.476 128.46,193.477C126.278,197.547 120.378,199.485 115.877,195.133C112.948,192.301 112.63,186.084 117.707,182.863C120.025,181.392 126.324,181.195 128.653,186.432C129.703,188.79 130.836,188.2 137.503,188.254C142.425,188.294 144.554,188.559 144.567,187.51C144.574,186.989 143.067,184.913 141.468,184.628C141.406,184.616 135.031,184.926 132.728,178.421C132.08,176.589 131.593,172.26 133.429,171.375C136.385,169.952 146.077,172.442 145.079,180.457C144.807,182.643 144.686,182.815 146.286,184.687C147.763,186.416 148.292,187.986 150.516,188.173C150.731,188.191 157.978,188.172 158.477,188.141C161.245,187.97 173.678,183.902 180.626,179.712C184.257,177.522 187.551,175.936 187.641,175.556C188.019,173.957 187.118,174.2 185.503,174.488C185.338,174.518 183.704,174.81 183.408,174.614C183.095,174.407 182.897,174.012 182.842,173.641C182.819,173.488 183.113,173.487 183.225,173.381C184.324,172.352 184.434,172.55 185.248,172.17C188.18,170.803 192.684,167.235 193.717,164.6C194.32,163.062 195.798,152.792 195.31,151.571C194.699,150.043 192.006,147.28 190.977,146.086C188.19,142.855 187.521,146.79 181.513,146.915C170.906,147.137 169.866,140.07 166.493,139.563C166.071,139.499 155.869,139.797 151.194,129.638C149.441,125.828 148.024,116.091 155.658,109.682C160.264,105.815 162.128,106.789 162.233,104.488C162.303,102.979 162.143,102.989 162.246,101.486C162.874,92.338 170.276,86.304 177.47,86.06C180.364,85.962 180.359,85.993 181.542,86.098C185.257,86.427 183.881,84.021 188.369,79.374C198.066,69.333 212.429,72.253 218.947,79.05C223.759,84.069 222.387,86.371 225.497,86.364C227.816,86.358 230.023,85.699 235.561,88.377C238.561,89.828 240.919,93.148 241.28,93.655C242.485,95.352 244.504,99.482 244.003,104.447C243.773,106.717 243.695,107.035 245.677,108.166C247.209,109.04 255.574,113.053 255.074,125.464C254.845,131.159 250.188,140.445 239.48,141.027C238.263,141.093 237.28,140.583 235.528,142.524C233.635,144.62 233.805,144.81 231.384,146.303C224.535,150.527 217.504,147.172 216.423,146.656C213.671,145.343 213.434,146.127 211.401,148.415C208.414,151.777 208.712,152.097 208.923,155.461C208.938,155.712 209.95,163.724 211.308,165.626C215.09,170.923 220.108,172.618 220.321,172.738C220.564,172.876 220.7,173.151 220.923,173.318C221.067,173.424 221.366,173.372 221.408,173.546C221.461,173.764 220.898,174.635 220.626,174.7C219.992,174.85 217.484,173.96 216.911,174.774C216.303,175.638 216.801,175.698 217.64,176.333C217.868,176.507 217.925,176.402 220.755,178.101C221.793,178.725 230.498,184.384 243.44,187.719C246.455,188.496 254.154,188.227 254.407,188.141C255.954,187.616 256.15,186.636 257.77,184.735C259.97,182.153 258.915,181.771 258.941,179.505C258.969,177.063 260.715,173.543 263.437,172.359C264.042,172.097 270.369,169.346 271.675,172.422C273.122,175.832 270.16,183.774 264.49,184.431C262.806,184.626 262.346,183.936 260.154,186.32C260.037,186.447 258.391,188.237 260.514,188.444C261.309,188.522 261.297,188.276 270.5,188.264C270.737,188.264 273.267,188.261 273.452,188.203C274.827,187.779 274.953,186.843 276.126,185.244C276.552,184.663 279.334,180.868 284.593,182.159C289.907,183.463 293.243,191.962 286.409,196.357C283.5,198.228 278.054,198.211 275.589,193.449C274.198,190.762 273.411,191.336 268.502,191.309C260.881,191.267 260.594,191.278 260.431,191.401C259.146,192.366 261.122,193.686 261.292,193.799C262.572,194.654 268.803,192.349 271.657,200.428C272.26,202.132 272.726,205.36 271.402,206.363C269.869,207.525 261.223,208.152 259.168,200.61C258.279,197.349 260.029,196.743 257.764,194.25C255.822,192.111 255.891,191.322 253.504,191.273C245.881,191.116 245.753,191.803 238.493,189.522C229.396,186.664 228.574,186.178 220.437,181.597C216.902,179.606 214.186,176.615 213.525,176.7C212.391,176.846 213.253,178.418 213.325,178.548C213.743,179.311 214.135,179.024 219.394,187.57C219.985,188.531 225.582,196.628 226.868,198.197C232.005,204.46 235.238,205.523 245.709,212.115C248.595,213.932 254.625,217.229 255.409,217.658C262.725,221.658 264.24,221.067 289.5,221.142C290.61,221.145 294.21,221.458 295.161,220.206C296.082,218.992 296.587,216.751 300.496,215.489C308.856,212.788 315.105,224.804 306.223,230.02C303.798,231.444 298.778,231.324 296.355,227.599C295.05,225.595 295.12,224.47 292.502,224.393C290.778,224.342 284.579,224.384 281.494,224.286C281.327,224.281 279.744,224.231 279.403,224.343C279.14,224.429 278.755,225.215 278.834,225.416C278.932,225.666 281.51,228.48 282.413,228.744C283.548,229.077 288.631,227.417 292.192,232.71C292.432,233.066 296.073,239.54 292.632,240.845C290.934,241.489 285.772,242.108 282.741,239.239C279.654,236.319 280.309,232.082 280.145,231.63C279.713,230.428 274.881,225.059 273.466,224.59C269.666,223.33 264.678,226.675 252.462,219.567C250.098,218.192 249.979,217.59 249.338,218.27C248.472,219.191 249.019,219.339 249.578,220.469C256.753,234.989 256.949,236.849 265.406,243.617C266.213,244.263 280.833,255.431 282.444,256.581C283.146,257.082 288.75,261.358 289.297,261.776Z" style="fill:rgb(9,11,4);"/>
            <path d="M247.404,127.351L246.714,127.796C246.1,128.142 246.155,128.204 245.491,128.486C244.859,128.753 244.893,128.778 244.29,129.128C243.811,129.407 241.41,130.803 237.412,129.984C233.925,129.269 233.344,127.789 233.114,127.566L233.241,126.513C233.449,126.029 233.203,125.991 233.41,125.51C233.659,124.93 233.91,125.091 234.109,124.49C234.196,124.228 234.163,123.903 234.021,123.667C233.926,123.508 233.681,123.437 233.5,123.474C233.5,123.474 231.654,124.373 231.493,124.451C226.79,125.585 225.802,126.228 219.65,124.116C216.417,122.344 216.81,121.729 216.025,120.856C215.883,120.696 215.628,120.669 215.485,120.51C215.292,120.323 215.245,120.017 215.053,119.83C214.926,119.706 214.917,119.738 213.221,118.579C213.204,116.73 213.246,116.736 213.203,116.583C213.155,116.408 212.891,116.352 212.843,116.178C212.57,115.837 212.87,115.717 212.598,115.377C212.529,115.29 211.86,114.456 211.506,114.509C211.026,114.581 211.027,115.391 210.632,115.673C210.379,115.854 210,115.692 209.706,115.794C207.982,116.392 206.959,117.731 203.548,117.878C197.05,118.159 193.587,115.178 193.5,115.159C193.192,115.089 192.885,115.311 192.572,115.348C192.185,115.393 191.723,115.178 191.405,115.403C191.157,115.578 191.476,116.122 191.228,116.297C191.197,116.431 190.969,116.456 190.938,116.59C190.92,116.667 190.882,116.83 190.93,117.579C190.948,117.871 191.037,118.155 191.056,118.447C190.734,118.764 190.829,118.826 190.5,119.15C190.163,119.482 190.111,119.396 189.765,119.717C188.707,120.702 188.854,120.827 187.718,121.749C187.593,121.85 186.174,123.002 186.157,123.012C180.884,126.135 174.448,124.618 173.322,123.856C172.168,123.075 171.591,123.235 171.382,123.16C171.341,123.228 170.493,123.377 170.577,124.507C170.577,124.507 171.125,126.226 171.173,126.375C171.392,127.075 171.612,127.775 171.832,128.475C172.301,129.024 173.281,130.898 176.61,132.259C178.863,133.18 179.383,132.524 181.264,134.705C185.953,140.138 186.21,139.948 186.417,140.536C187.094,142.454 185.002,142.765 183.407,143.197C175.396,145.364 171.227,138.428 170.541,137.473C169.185,135.585 168.707,136.405 165.53,136.12C155.273,135.198 153.777,126.502 153.303,124.565C153.204,123.543 152.704,121.522 153.706,118.567C153.872,118.077 154.999,114.752 156.993,112.988C162.907,107.754 165.035,109.495 165.788,107.641C166.486,105.92 164.853,103.23 166.177,98.426C167.129,94.973 170.527,92.122 171.507,91.51C177.832,87.559 181.477,89.528 183.618,90.089C188.633,91.402 184.555,82.904 197.433,77.335C204.362,74.339 215.022,77.107 219.618,85.43C221.459,88.766 220.642,90.635 224.413,90.068C225.215,89.948 230.472,89.158 234.44,91.592C243.815,97.341 239.695,107.542 239.753,108.488C239.845,109.979 241.368,109.502 244.61,111.315C251.183,114.99 251.914,122.217 251.813,123.535C251.559,126.84 251.149,131.404 246.774,134.85C242.339,138.343 238.669,137.819 236.505,137.807C236.981,137.316 237.024,136.504 237.5,136.014C237.74,135.766 238.169,135.847 238.5,135.75C241.38,134.907 241.434,135.596 241.669,135.5C241.894,135.408 241.525,134.961 241.678,134.772C241.859,134.549 242.288,134.69 242.492,134.487C242.67,134.309 242.528,133.949 242.693,133.758C242.873,133.55 243.234,133.582 243.436,133.394C243.593,133.248 243.548,132.954 243.708,132.813C244.361,132.237 244.577,132.761 245.309,132.292C245.511,132.162 245.535,131.86 245.703,131.688C245.863,131.524 246.115,131.471 246.275,131.307C246.435,131.141 246.466,130.87 246.641,130.718C246.848,130.539 247.138,130.484 247.378,130.352C247.549,130.258 249.327,129.282 248.962,128.5C248.689,127.915 247.677,127.936 247.404,127.351Z" style="fill:rgb(124,180,75);"/>
            <path d="M200.573,159.516C200.518,160.015 200.473,159.994 200.416,160.507C200.257,161.944 200.217,161.926 200.016,163.364C200.206,164.094 200.397,164.824 200.587,165.554C200.411,165.761 200.364,166.058 200.189,166.264C200.06,166.416 199.799,166.432 199.696,166.603C199.544,166.853 199.634,167.209 199.47,167.452C199.388,167.572 198.778,167.581 198.611,168.639C198.547,169.047 198.658,169.47 198.593,169.878C197.7,170.273 197.804,170.47 196.57,170.773C196.335,170.831 193.813,171.45 193.577,171.237C193.378,171.057 193.647,170.703 193.659,170.434C193.671,170.152 193.561,169.855 193.65,169.587C193.688,169.474 196.093,167.89 196.756,164.567C196.821,164.242 198.587,153.772 198.393,151.515C198.199,149.258 195.743,147.334 192.085,142.909C190.318,140.771 186.365,136.69 185.854,136.163C184.309,134.568 183.606,133.804 184.099,133.192C185.016,132.051 185.281,132.743 186.416,133.651C186.99,134.111 186.771,134.319 193.198,139.842C193.234,139.873 196.842,143.235 197.363,143.708C197.5,143.833 199.209,145.389 199.684,143.577C199.909,142.718 199.574,142.692 200.492,132.498C200.73,129.859 200.47,126.148 201.627,125.871C203.08,125.522 203.295,127.345 203.318,127.533C203.622,130.102 203.633,134.597 204.448,140.504C204.94,144.072 204.93,144.057 204.955,144.092C205.582,145.005 206.595,144.007 206.695,143.908C208.029,142.593 215.395,136.722 218.231,134.044C219.048,133.272 218.992,133.204 219.446,133.031C221.315,132.322 220.544,134.363 220.493,134.498C220.174,135.342 219.773,135.015 213.653,141.644C207.229,148.602 205.708,149.295 205.782,152.488C205.851,155.47 206.845,163.159 207.715,165.428C208.993,168.765 211.206,169.484 211.39,170.496C211.639,171.861 210.862,171.479 209.495,171.285C206.538,170.866 206.555,170.78 206.444,170.801C205.797,170.925 205.27,171.445 204.622,171.569C203.106,169.137 202.525,169.099 203.314,166.326C203.391,166.056 203.344,165.734 203.508,165.506C203.801,165.098 204.416,164.953 204.629,164.497C204.698,164.352 204.611,164.356 204.388,162.5C204.347,162.164 204.228,161.838 204.209,161.5C204.144,160.366 204.514,160.182 202.868,158.154C202.429,158.401 201.795,157.935 201.356,158.183C201.285,158.223 201.574,158.318 201.079,159.161C200.908,159.452 200.737,159.237 200.573,159.516Z" style="fill:rgb(130,89,62);"/>
            <path d="M233.114,127.566C233.344,127.789 233.925,129.269 237.412,129.984C241.41,130.803 243.811,129.407 244.29,129.128C244.893,128.778 244.859,128.753 245.491,128.486C246.155,128.204 246.1,128.142 246.714,127.796L247.404,127.351C247.677,127.936 248.689,127.915 248.962,128.5C249.327,129.282 247.549,130.258 247.378,130.352C247.138,130.484 246.848,130.539 246.641,130.718C246.466,130.87 246.435,131.141 246.275,131.307C246.115,131.471 245.863,131.524 245.703,131.688C245.535,131.86 245.511,132.162 245.309,132.292C244.577,132.761 244.361,132.237 243.708,132.813C243.548,132.954 243.593,133.248 243.436,133.394C243.234,133.582 242.873,133.55 242.693,133.758C242.528,133.949 242.67,134.309 242.492,134.487C242.288,134.69 241.859,134.549 241.678,134.772C241.525,134.961 241.894,135.408 241.669,135.5C241.434,135.596 241.38,134.907 238.5,135.75C238.169,135.847 237.74,135.766 237.5,136.014C237.024,136.504 236.981,137.316 236.505,137.807C236.176,137.913 235.812,137.638 234.463,138.46C233.551,139.015 229.594,147.947 218.673,144.095C216.298,143.258 216.699,142.278 218.432,140.434C221.309,137.373 223.462,134.278 225.508,133.518C228.524,132.398 229.333,133.258 232.883,128.479L233.114,127.566Z" style="fill:rgb(68,135,62);"/>
            <path d="M213.221,118.579C214.917,119.738 214.926,119.706 215.053,119.83C215.245,120.017 215.292,120.323 215.485,120.51C215.066,121.232 214.648,121.953 214.229,122.674C213.527,122.65 212.902,121.909 212.561,123.523C211.786,127.199 216.074,130.641 216.329,131.51C216.651,132.609 212.805,135.319 209.364,138.34C209.277,138.416 206.902,140.833 206.889,137.493C206.865,131.209 205.53,126.063 206.952,124.99C208.859,123.551 209.87,124.1 213.221,118.579Z" style="fill:rgb(70,130,66);"/>
            <path d="M191.228,116.297C191.476,116.122 191.157,115.578 191.405,115.403C191.723,115.178 192.185,115.393 192.572,115.348C192.885,115.311 193.192,115.089 193.5,115.159C193.587,115.178 197.05,118.159 203.548,117.878C206.959,117.731 207.982,116.392 209.706,115.794C210,115.692 210.379,115.854 210.632,115.673C211.027,115.391 211.026,114.581 211.506,114.509C211.86,114.456 212.529,115.29 212.598,115.377C212.87,115.717 212.57,115.837 212.843,116.178C212.473,116.465 211.833,116.159 211.464,116.447C211.234,116.626 211.474,117.042 211.379,117.318C211.341,117.431 211.299,117.387 210.585,118.582C208.801,121.567 202.164,124.667 196.653,121.24C193.143,119.058 193.357,117.679 192.646,117.141C192.207,116.808 191.666,116.629 191.228,116.297Z" style="fill:rgb(79,139,65);"/>
            <path d="M191.056,118.447C191.369,119.115 191.682,119.783 191.995,120.452C191.679,120.946 191.869,121.014 191.551,121.513C191.157,122.131 191.03,122.015 190.613,122.618C190.28,123.099 189.012,125.509 188.878,125.764C188.197,125.755 187.954,124.509 187.274,124.5C187.001,124.496 187.216,124.867 184.51,126.507C184.349,126.605 184.111,126.587 183.991,126.733C183.797,126.97 183.755,127.298 183.631,127.578C183.286,128.357 183.128,128.325 183.208,128.5C183.547,129.237 184.113,128.626 184.454,129.369C180.211,130.633 179.787,130.653 175.499,128.502C173.158,127.327 173.604,126.57 172.48,126.384C172.05,126.313 171.603,126.446 171.173,126.375C171.125,126.226 170.577,124.507 170.577,124.507C170.493,123.377 171.341,123.228 171.382,123.16C171.591,123.235 172.168,123.075 173.322,123.856C174.448,124.618 180.884,126.135 186.157,123.012C186.174,123.002 187.593,121.85 187.718,121.749C188.854,120.827 188.707,120.702 189.765,119.717C190.111,119.396 190.163,119.482 190.5,119.15C190.829,118.826 190.734,118.764 191.056,118.447Z" style="fill:rgb(73,136,56);"/>
            <path d="M191.273,126.435C191.654,126.255 192.12,126.314 192.5,126.133C192.891,125.948 193.111,125.313 193.541,125.358C194.023,125.409 194.237,126.033 194.602,126.353C196.282,127.826 196.178,129.175 196.444,129.5C196.818,129.957 197.519,130.061 197.893,130.518C197.579,135.107 197.56,135.102 197.543,135.501C197.444,137.976 197.566,138.002 197.316,138.393C196.391,139.847 194.416,137.508 191.298,134.734C190.064,133.637 187.705,131.966 188.542,130.52C188.631,130.366 188.704,130.429 189.968,128.829C190.823,127.747 190.69,127.68 191.273,126.435Z" style="fill:rgb(62,133,59);"/>
            <path d="M171.503,275.053C171.826,275.059 175.102,275.124 175.519,275.472C176.422,276.226 176.258,276.351 176.337,277.512C176.721,283.151 176.088,283.471 175.644,283.696C174.823,284.112 171.834,284.1 171.501,284.099C171.244,284.098 168.95,284.089 168.302,283.8C167.838,283.593 167.28,283.344 167.465,277.499C167.55,274.787 169.296,275.16 171.503,275.053Z" style="fill:rgb(239,210,96);"/>
            <path d="M106.222,222.528C106.214,222.614 106.685,225.352 103.437,227.394C100.317,229.356 95.297,226.211 96.587,221.524C97.851,216.928 104.405,217.259 105.897,221.345C106.038,221.729 106.082,222.144 106.222,222.528Z" style="fill:rgb(234,218,109);"/>
            <path d="M232.498,283.983C232.17,283.992 228.936,284.078 228.417,283.608C227.235,282.539 227.865,276.75 227.916,276.623C228.319,275.621 228.945,274.831 233.504,275.072C235.82,275.195 236.436,275.175 236.519,277.5C236.705,282.737 236.311,283.535 235.675,283.79C235.184,283.987 232.753,283.984 232.498,283.983Z" style="fill:rgb(156,189,121);"/>
            <path d="M107.694,273.747C106.543,274.42 104.676,275.924 101.429,273.578C100.52,272.921 100.053,271.183 99.993,270.462C99.455,264.032 107.886,263.44 109.433,268.524C110.388,271.664 107.805,273.618 107.694,273.747Z" style="fill:rgb(153,195,103);"/>
            <path d="M222.958,301.517C222.787,302.841 223.368,304.384 220.508,304.616C214.848,305.076 214.473,304.059 214.299,303.586C214.119,303.096 213.882,297.347 214.535,296.528C215.001,295.944 216.342,295.872 216.508,295.863C221.603,295.588 222.17,296.148 222.513,296.488C222.91,296.88 222.962,298.317 222.968,298.481C222.994,299.212 222.98,299.2 222.958,301.517Z" style="fill:rgb(223,222,114);"/>
            <path d="M303.577,227.848C302.602,227.793 301.749,228.369 299.428,226.573C296.945,224.653 298.003,221.778 298.15,221.376C300.209,215.777 309.14,218.293 307.322,224.439C306.502,227.21 303.599,227.838 303.577,227.848Z" style="fill:rgb(158,190,120);"/>
            <path d="M121.501,184.911C123.146,185.228 123.27,184.929 124.299,185.773C128.806,189.468 125.564,195.368 120.525,194.38C116.34,193.559 115.613,188.729 118.284,186.257C119.912,184.749 121.402,184.935 121.501,184.911Z" style="fill:rgb(91,172,223);"/>
            <path d="M282.522,184.867C282.993,184.973 284.349,184.82 285.789,186.213C285.997,186.414 287.225,187.602 287.286,189.509C287.398,193.036 284.123,194.993 281.522,194.391C277.005,193.345 276.875,188.555 279.217,186.198C280.693,184.713 282.205,184.932 282.522,184.867Z" style="fill:rgb(185,205,119);"/>
            <path d="M251.499,256.788C253.008,256.911 253.13,256.639 253.754,257.258C254.622,258.118 254.323,264.122 253.783,264.737C253.253,265.341 252.85,265.372 248.501,265.394C245.075,265.411 245.517,264.033 245.533,259.5C245.535,259.104 245.398,257.827 246.198,257.141C246.768,256.652 246.85,256.764 251.499,256.788Z" style="fill:rgb(102,175,222);"/>
            <path d="M149.945,259.498C150.284,257.628 149.953,257.367 150.792,256.985C151.242,256.779 154.199,256.786 154.495,256.786C157.336,256.793 158.287,256.585 158.37,259.504C158.435,261.826 158.597,264.1 157.84,264.859C156.857,265.848 151.078,265.234 150.763,265.081C149.669,264.552 149.924,261.738 149.945,259.498Z" style="fill:rgb(100,173,219);"/>
            <path d="M203.368,156.458C203.673,157.523 204.372,160.127 204.437,161.261C204.456,161.599 204.552,162.87 204.593,163.206C204.816,165.062 204.651,166.705 204.651,166.705C204.651,166.705 203.801,165.098 203.508,165.506C203.344,165.734 203.346,166.608 203.321,166.887C203.13,169.062 203.106,169.137 204.622,171.569C202.829,174.782 202.215,176.166 201.243,174.93C200.802,174.369 200.073,172.436 198.593,169.878C198.658,169.47 198.547,169.047 198.611,168.639C198.657,168.351 198.888,167.422 198.888,167.422C198.888,167.422 198.896,166.71 198.903,166.53C198.915,166.231 198.984,165.787 198.984,165.787C198.984,165.787 198.906,165.002 198.956,164.614C199.028,164.053 199.255,163.256 199.417,162.422C199.454,162.233 199.657,161.025 199.774,161.213C200.006,161.586 199.917,162.921 199.917,162.921C199.917,162.921 200.225,161.944 200.384,160.507C200.441,159.994 200.429,159.825 200.509,159.562C200.574,159.35 200.785,159.251 200.898,158.934C201.084,158.412 201.337,158.191 201.422,158.019C201.685,157.491 203.23,155.974 203.368,156.458Z" style="fill:rgb(143,91,56);"/>
            <path d="M302.541,266.456C302.725,266.684 303.732,267.289 303.987,269.457C304.795,276.341 293.767,276.635 294.309,269.484C294.4,268.281 294.559,268.328 295.101,267.236C295.855,267.561 295.733,267.753 296.5,268.083C296.553,268.106 296.952,268.278 297.221,268.149C297.69,267.924 297.953,267.37 298.428,267.158C298.766,267.007 299.189,266.989 299.537,267.114C300.052,267.299 300.383,267.838 300.891,268.041C301.085,268.119 301.35,268.042 301.5,267.898C301.927,267.487 302.113,266.867 302.541,266.456Z" style="fill:rgb(241,214,92);"/>
            <path d="M219.65,124.116C225.802,126.228 226.79,125.585 231.493,124.451C231.734,124.683 232.212,124.515 232.453,124.747C232.624,124.913 232.468,125.23 232.536,125.459C232.775,126.263 233.179,126.42 233.241,126.513L233.114,127.566L232.883,128.479C232.326,128.302 232.049,127.59 231.492,127.413C231.209,127.323 231.241,127.458 230.358,128.203C228.419,129.838 226.801,130.202 226.456,130.28C222.467,131.177 220.508,129.951 220.36,129.905C220.647,129.036 221.147,129.358 221.43,128.5C221.45,128.438 221.533,128.189 221.063,127.775C220.891,127.622 220.58,127.732 220.399,127.59C220.029,127.301 219.809,126.858 219.473,126.531C219.142,126.208 218.371,126.108 218.405,125.647C218.454,124.991 219.602,124.772 219.65,124.116Z" style="fill:rgb(70,135,58);"/>
            <path d="M232.324,133.285C232.368,133.897 233.834,133.664 233.877,134.276C233.922,134.894 232.723,134.932 232.483,135.503C232.31,135.913 232.926,136.365 232.816,136.797C232.698,137.26 232.183,137.512 231.879,137.881C230.947,139.012 230.945,139.001 229.763,139.874C229.106,140.36 229.048,140.215 228.473,140.456C227.552,140.843 227.573,141.381 227.48,141.459C227.256,141.646 226.878,141.585 226.669,141.788C226.505,141.947 226.652,142.31 226.466,142.442C226.052,142.734 224.015,142.245 223.503,142.238C220.858,142.199 220.842,142.478 220.642,142.366C219.477,141.715 220.568,141.503 221.405,140.466C222.78,138.761 222.378,138.553 222.5,138.413C222.752,138.121 223.2,138.075 223.5,137.834C223.763,137.623 223.89,137.266 224.167,137.075C224.562,136.803 225.076,136.742 225.474,136.474C225.865,136.211 226.075,135.703 226.501,135.502C226.804,135.359 227.171,135.547 227.504,135.518C227.844,135.488 228.171,135.356 228.512,135.327C228.953,135.115 229.004,134.405 229.446,134.194C229.758,134.044 230.13,134.476 230.465,134.391C230.633,134.349 230.602,134.309 232.324,133.285Z" style="fill:rgb(52,140,50);"/>
            <path d="M284.054,231.188C284.096,231.182 285.357,230.56 287.546,231.435C290.265,232.522 292.132,237.475 291.434,238.447C290.864,239.241 283.736,240.278 282.64,234.501C282.538,233.962 282.696,232.141 282.842,231.918C282.904,231.824 282.931,231.865 284.054,231.188Z" style="fill:rgb(122,147,99);"/>
            <path d="M185.822,299.508C185.201,300.099 185.077,299.919 184.467,300.5C183.42,301.497 183.606,301.653 183.5,301.719C183.242,301.878 182.895,301.653 182.591,301.66C179.149,301.745 178.81,301.864 178.5,301.973C178.018,302.143 177.583,302.433 177.101,302.602C177.084,302.103 176.917,297.207 177.191,296.364C177.436,295.612 177.791,295 183.516,295.187C186.499,295.284 185.762,296.536 185.822,299.508Z" style="fill:rgb(151,189,105);"/>
            <path d="M269.695,174.451C269.63,175.055 269.931,175.833 268.695,178.606C267.609,181.041 266.318,181.599 265.61,181.856C263.075,182.775 260.178,181.663 261.621,177.547C261.811,177.007 262.798,174.193 267.495,173.457C269.691,173.112 269.318,174.094 269.695,174.451Z" style="fill:rgb(155,175,126);"/>
            <path d="M140.157,180.823C139.862,181.356 140.078,181.417 139.781,181.953C139.726,182.053 139.575,182.09 139.461,182.079C135.144,181.692 133.868,175.023 134.799,173.77C135.873,172.323 143.488,174.715 142.818,179.678C142.76,180.111 141.84,181.753 141.733,181.766C141.125,181.838 140.765,180.751 140.157,180.823Z" style="fill:rgb(148,169,120);"/>
            <path d="M197.644,322.43C197.534,321.984 196.691,320.812 197.622,318.559C199.861,313.144 208.833,315.858 206.404,322.464C205.32,325.413 201.667,325.486 200.602,325.134C200.197,325 199.848,324.728 199.443,324.594C199.858,324.19 200.085,323.619 200.5,323.216C201.294,322.443 201.419,322.73 202.531,322.637C202.782,322.616 205.756,322.367 204.785,320.432C203.969,318.805 202.732,318.556 202.498,318.509C200.562,318.12 200.274,318.86 200.128,319.12C198.928,321.257 199.09,321.343 198.947,321.5C198.588,321.894 198.004,322.036 197.644,322.43Z" style="fill:rgb(162,194,121);"/>
            <path d="M183.319,252.323C183.692,252.37 184.074,252.282 184.448,252.328C189.319,252.939 189.728,258.838 189.049,261.226C188.935,261.627 188.292,263.885 183.846,261.103C183.249,260.729 181.235,258.697 180.979,255.454C180.88,254.208 181.508,253.856 181.556,253.711C181.914,254.12 183.442,254.991 183.778,257.488C183.905,258.437 183.767,258.582 184.595,259.069C186.097,259.953 186.693,258.666 186.768,258.503C186.918,258.18 186.484,257.848 186.392,257.505C186.009,256.063 186.356,255.866 185.246,254.85C184.057,253.761 184.204,253.659 183.319,252.323Z" style="fill:rgb(155,178,118);"/>
            <path d="M220.629,252.384C220.419,252.748 220.37,253.192 220.159,253.556C219.707,254.338 218.416,255.072 218.316,255.344C217.928,256.4 218.428,256.468 218.071,257.518C217.676,258.675 217.201,258.433 216.884,259.625C216.462,261.208 218.423,259.83 218.531,259.754C219.957,258.752 220.289,258.517 220.511,257.501C220.581,257.182 220.587,256.853 220.653,256.534C221.063,254.562 222.146,254.173 222.404,253.886C222.677,254.617 223.16,254.787 222.91,256.54C222.879,256.762 222.657,258.317 222.088,259.216C221.869,259.564 220.034,261.433 218.382,262.119C215.624,263.263 214.96,262.434 214.851,259.453C214.828,258.828 214.643,253.785 218.511,252.543C219.691,252.164 220.565,252.389 220.629,252.384Z" style="fill:rgb(191,197,133);"/>
            <path d="M173.548,134.094C174.049,134.199 173.998,134.313 174.489,134.416C174.569,134.432 175.119,134.547 175.5,134.502C175.848,134.46 176.15,134.176 176.5,134.176C176.895,134.175 177.31,134.284 177.641,134.5C177.797,134.602 177.692,134.892 177.815,135.031C177.998,135.239 178.28,135.334 178.511,135.487C179.816,136.349 179.723,136.446 180.635,137.348C180.981,137.691 181.509,137.876 181.741,138.304C181.928,138.65 181.701,139.1 181.79,139.483C181.862,139.791 182.178,140.018 182.216,140.333C182.241,140.537 182.146,140.803 181.962,140.896C181.518,141.121 180.993,141.133 180.5,141.203C178.922,141.429 178.981,141.06 177.487,140.518C177.022,140.396 176.511,140.622 176.046,140.5C175.067,140.243 173.625,136.697 173.391,136.543C173.142,136.38 172.708,136.817 172.5,136.604C172.241,136.339 172.227,135.842 172.37,135.5C172.606,134.936 173.312,134.658 173.548,134.094Z" style="fill:rgb(54,137,53);"/>
            <path d="M261.233,198.284L262.347,198.693C262.483,198.944 262.713,199.136 262.85,199.387C263.702,200.95 263.398,201.278 264.503,201.656C264.685,201.718 266.071,202.191 266.61,200.522C266.65,200.398 266.554,200.429 265.778,199.13C266.156,199.245 266.096,198.829 266.464,198.941C267.205,199.167 266.976,199.579 267.721,199.722C268.052,199.786 268.336,199.3 268.668,199.364C269.383,200.877 269.622,200.792 269.794,202.474C270.002,204.499 269.538,204.794 267.489,204.73C263.046,204.59 261.249,201.22 261.132,199.453C261.106,199.063 261.258,198.674 261.233,198.284Z" style="fill:rgb(149,171,110);"/>
            <path d="M142.281,197.854C142.351,198.077 143.442,199.568 141.936,201.881C141.695,202.252 141.053,203.647 138.466,204.39C134.449,205.544 134.247,203.806 134.398,202.493C134.544,201.218 134.683,201.271 135.379,199.411C135.721,199.339 136.063,199.697 136.404,199.625C137.088,199.48 136.914,199.152 137.567,198.948C137.905,198.842 137.89,199.159 138.225,199.054C138.095,199.262 137.829,199.361 137.699,199.568C137.662,199.627 136.925,201.494 136.925,201.526C136.925,201.653 137.182,201.544 137.303,201.585C138.447,201.978 138.564,202.232 139.485,201.468C139.829,201.183 140.119,200.831 140.365,200.458C140.549,200.178 140.569,199.809 140.759,199.533C140.784,199.497 140.846,199.587 141.221,199.218C141.422,199.019 141.328,198.972 141.544,198.759L142.281,197.854Z" style="fill:rgb(132,165,105);"/>
            <path d="M215.485,120.51C215.628,120.669 215.883,120.696 216.025,120.856C216.81,121.729 216.417,122.344 219.65,124.116C219.602,124.772 218.454,124.991 218.405,125.647C218.371,126.108 219.142,126.208 219.473,126.531C219.809,126.858 220.029,127.301 220.399,127.59C220.58,127.732 220.891,127.622 221.063,127.775C221.533,128.189 221.45,128.438 221.43,128.5C221.147,129.358 220.647,129.036 220.36,129.905C219.522,129.504 219.433,129.589 218.323,128.84C214.558,126.3 214.499,123.843 214.229,122.674C214.648,121.953 215.066,121.232 215.485,120.51Z" style="fill:rgb(82,135,70);"/>
            <path d="M197.644,322.43C198.004,322.036 198.588,321.894 198.947,321.5C199.09,321.343 198.928,321.257 200.128,319.12C200.274,318.86 200.562,318.12 202.498,318.509C202.732,318.556 203.969,318.805 204.785,320.432C205.756,322.367 202.782,322.616 202.531,322.637C201.419,322.73 201.294,322.443 200.5,323.216C200.085,323.619 199.858,324.19 199.443,324.594C199.157,324.334 199.108,324.418 198.817,324.154C198.694,324.041 198.73,324.026 197.644,322.43Z" style="fill:rgb(152,198,87);"/>
            <path d="M193.679,122.3C196.638,125.218 197.856,124.363 198.074,126.496C198.081,126.566 197.908,130.196 197.893,130.518C197.519,130.061 196.818,129.957 196.444,129.5C196.178,129.175 196.282,127.826 194.602,126.353C194.237,126.033 194.023,125.409 193.541,125.358C193.111,125.313 192.891,125.948 192.5,126.133C192.12,126.314 191.654,126.255 191.273,126.435C191.348,126.195 192.173,123.53 192.25,123.439C192.64,122.971 193.288,122.767 193.679,122.3Z" style="fill:rgb(74,123,74);"/>
            <path d="M120.497,231.502C120.617,231.715 120.941,231.758 121.061,231.971C121.492,232.737 121.572,237.016 118.409,238.346C115.504,239.567 114.277,238.965 113.384,238.877C113.866,238.083 114.348,237.289 114.83,236.494C116.606,236.757 116.792,237.183 118.166,236.024C118.249,235.954 119.237,234.517 119.284,234.397C119.343,234.244 119.287,234.246 119.325,232.35L120.497,231.502Z" style="fill:rgb(144,168,123);"/>
            <path d="M185.822,299.508C185.782,302.339 185.828,302.325 185.779,302.565C185.612,303.377 185.345,304.37 179.517,304.07C176.989,303.94 177.377,302.89 177.101,302.602C177.583,302.433 178.018,302.143 178.5,301.973C178.81,301.864 179.149,301.745 182.591,301.66C182.895,301.653 183.242,301.878 183.5,301.719C183.606,301.653 183.42,301.497 184.467,300.5C185.077,299.919 185.201,300.099 185.822,299.508Z" style="fill:rgb(160,190,125);"/>
            <path d="M239.796,112.31C239.296,113.061 238.997,112.752 238.5,113.5C237.992,114.264 238.485,114.34 238.424,114.374C238.199,114.499 238.1,113.897 237.845,113.865C237.669,113.842 237.66,114.231 237.485,114.256C237.172,114.299 236.852,114.166 236.56,114.045C236.479,114.012 236.51,113.852 236.43,113.818C234.957,113.181 234.855,113.564 234.774,113.455C234.59,113.205 234.657,112.839 234.678,112.529C234.702,112.187 234.94,111.867 234.909,111.526C234.876,111.159 234.571,110.861 234.496,110.501C234.421,110.141 234.577,108.804 234.677,108.623C234.681,108.617 235.593,107.779 235.596,107.779C236.308,107.899 237.84,109.149 237.95,109.5C238.056,109.84 237.534,110.126 237.526,110.482C237.52,110.768 237.711,111.046 237.912,111.249C237.912,111.249 239.645,112.225 239.796,112.31Z" style="fill:rgb(115,184,61);"/>
            <path d="M232.498,283.983C231.444,282.05 231.514,282.013 231.362,281.9C231.107,281.709 230.694,281.755 230.49,281.511C230.421,281.429 230.167,279.372 230.292,278.335C230.395,277.477 230.662,277.61 231.528,277.604C231.842,277.602 232.153,277.704 232.467,277.694C234.395,277.636 234.395,277.292 234.5,277.418C234.737,277.701 234.21,278.137 234.274,278.5C234.343,278.882 234.881,279.112 234.872,279.5C234.862,279.897 234.408,280.148 234.226,280.5C234.012,280.913 233.926,281.387 233.688,281.787C233.523,282.064 233.187,282.216 233.034,282.5C232.783,282.962 232.749,283.521 232.498,283.983Z" style="fill:rgb(145,193,77);"/>
            <path d="M174.588,104.908C174.106,104.789 172.12,105.427 172.074,102.535C172.01,98.533 176.892,99.669 176.728,102.516C176.626,104.276 176.154,104.092 174.588,104.908Z" style="fill:rgb(162,211,93);"/>
            <path d="M244.062,121.369C242.978,121.354 240.08,121.777 239.447,120.539C237.799,117.309 243.019,115.575 243.834,118.4C244.124,119.406 243.992,119.412 244.062,121.369Z" style="fill:rgb(158,210,95);"/>
            <path d="M304.831,221.279C304.965,221.749 305.505,222.031 305.639,222.5C305.691,222.684 305.905,223.437 304.733,224.709C304.597,224.857 303.162,226.414 302.472,225.817C301.965,225.379 301.929,224.573 301.5,224.057C301.264,223.774 300.717,223.825 300.543,223.5C300.384,223.204 300.672,222.836 300.665,222.5C300.657,222.096 300.367,221.68 300.5,221.298C300.585,221.054 304.485,221.261 304.831,221.279Z" style="fill:rgb(148,196,88);"/>
            <path d="M220.629,252.384C221.617,253.035 221.597,253.036 222.404,253.886C222.146,254.173 221.063,254.562 220.653,256.534C220.587,256.853 220.581,257.182 220.511,257.501C220.289,258.517 219.957,258.752 218.531,259.754C218.423,259.83 216.462,261.208 216.884,259.625C217.201,258.433 217.676,258.675 218.071,257.518C218.428,256.468 217.928,256.4 218.316,255.344C218.416,255.072 219.707,254.338 220.159,253.556C220.37,253.192 220.419,252.748 220.629,252.384Z" style="fill:rgb(78,85,27);"/>
            <path d="M284.634,188.422C285.442,190.116 285.556,190.087 285.5,190.238C285.404,190.497 285.025,190.52 284.803,190.684C284.382,190.997 284.051,191.449 283.574,191.667C283.333,191.777 281.845,191.689 281.498,191.504C280.347,190.89 280.235,190.785 280.346,189.497C280.472,188.019 281.293,187.483 281.453,187.379C281.662,187.242 283.183,187.254 283.52,187.442C283.951,187.683 284.202,188.181 284.634,188.422Z" style="fill:rgb(179,210,61);"/>
            <path d="M183.319,252.323C184.204,253.659 184.057,253.761 185.246,254.85C186.356,255.866 186.009,256.063 186.392,257.505C186.484,257.848 186.918,258.18 186.768,258.503C186.693,258.666 186.097,259.953 184.595,259.069C183.767,258.582 183.905,258.437 183.778,257.488C183.442,254.991 181.914,254.12 181.556,253.711C182.144,253.248 182.731,252.786 183.319,252.323Z" style="fill:rgb(40,65,16);"/>
            <path d="M180.943,115.466C181.626,114.844 181.527,114.758 182.304,114.226C184.015,113.053 186.109,114.929 186.08,115.433C186.072,115.571 184.868,116.873 184.502,117.502C184.393,117.69 184.355,117.923 184.207,118.082C184.018,118.285 183.712,118.353 183.523,118.556C182.857,118.14 183.231,117.798 182.564,117.382C182.157,117.127 182.087,117.668 181.691,117.412C181.429,117.243 181.558,116.731 181.296,116.562L180.943,115.466Z" style="fill:rgb(134,175,76);"/>
            <path d="M200.616,88.013C200.602,87.829 200.764,87.659 200.75,87.474C200.654,86.246 200.222,86.11 201.05,85.181C202.523,83.528 205.88,84.348 204.477,87.489C204.135,88.252 203.599,88.445 203.494,88.483C202.053,89 202.06,88.502 200.616,88.013Z" style="fill:rgb(155,210,98);"/>
            <path d="M234.444,99.488C234.305,99.732 234.303,100.038 234.164,100.281C233.109,102.121 229.295,101.219 230.244,98.381C230.724,96.946 233.998,96.592 234.386,98.524C234.449,98.84 234.381,99.173 234.444,99.488Z" style="fill:rgb(159,211,95);"/>
            <path d="M302.541,266.456C302.113,266.867 301.927,267.487 301.5,267.898C301.35,268.042 301.085,268.119 300.891,268.041C300.383,267.838 300.052,267.299 299.537,267.114C299.189,266.989 298.766,267.007 298.428,267.158C297.953,267.37 297.69,267.924 297.221,268.149C296.952,268.278 296.553,268.106 296.5,268.083C295.733,267.753 295.855,267.561 295.101,267.236C296.606,265.863 296.425,265.449 298.449,265.153C300.673,264.827 300.614,265.306 302.541,266.456Z" style="fill:rgb(231,210,127);"/>
            <path d="M188.878,125.764C188.558,126.173 188.355,126.665 188.035,127.075C187.394,127.898 184.758,129.217 184.454,129.369C184.113,128.626 183.547,129.237 183.208,128.5C183.128,128.325 183.286,128.357 183.631,127.578C183.755,127.298 183.797,126.97 183.991,126.733C184.111,126.587 184.349,126.605 184.51,126.507C187.216,124.867 187.001,124.496 187.274,124.5C187.954,124.509 188.197,125.755 188.878,125.764Z" style="fill:rgb(87,132,80);"/>
            <path d="M261.233,198.284C261.337,198.009 261.338,197.702 261.443,197.428C262.008,195.946 265.335,196.337 266.311,196.871C267.855,197.718 267.753,197.859 268.668,199.364C268.336,199.3 268.052,199.786 267.721,199.722C266.976,199.579 267.205,199.167 266.464,198.941C266.096,198.829 266.156,199.245 265.778,199.13C263.725,198.157 263.747,198.119 263.559,198.134C263.116,198.17 262.79,198.657 262.347,198.693L261.233,198.284Z" style="fill:rgb(128,145,102);"/>
            <path d="M142.281,197.854L141.544,198.759C141.383,198.734 140.848,198.098 139.486,198.448C138.674,198.656 138.286,199.025 138.225,199.054C137.89,199.159 137.905,198.842 137.567,198.948C136.914,199.152 137.088,199.48 136.404,199.625C136.063,199.697 135.721,199.339 135.379,199.411C135.437,199.322 136.347,197.208 138.527,196.581C141.536,195.715 142.258,197.83 142.281,197.854Z" style="fill:rgb(118,142,98);"/>
            <path d="M114.65,232.719C115.054,233.324 115.458,233.929 115.862,234.533C115.518,235.187 115.174,235.841 114.83,236.494C114.348,237.289 113.866,238.083 113.384,238.877C113.187,238.635 112.742,238.705 112.546,238.462C111.196,236.799 114.334,233.093 114.65,232.719Z" style="fill:rgb(156,184,126);"/>
            <path d="M140.157,180.823C138.553,179.679 138.575,179.666 138.425,179.587C138.277,179.51 138.035,179.594 137.943,179.455C137.761,179.179 137.809,178.805 137.702,178.493C137.636,178.301 136.487,175.97 136.621,175.836C136.902,175.554 138.354,176.281 138.493,176.35C138.927,176.568 139.025,176.401 139.728,177.191C140.632,178.209 140.924,178.118 140.917,179.465C140.915,179.984 140.16,180.304 140.157,180.823Z" style="fill:rgb(42,69,20);"/>
            <path d="M119.325,232.35C119.287,234.246 119.343,234.244 119.284,234.397C119.237,234.517 118.249,235.954 118.166,236.024C116.792,237.183 116.606,236.757 114.83,236.494C115.174,235.841 115.518,235.187 115.862,234.533C115.99,234.431 117.464,233.248 117.464,233.248C118.019,232.984 118.05,233.118 118.588,232.858C118.994,232.662 118.907,232.552 119.325,232.35Z" style="fill:rgb(38,69,21);"/>
            <path d="M263.556,178.526C263.729,178.26 263.717,177.902 263.89,177.636C264.447,176.777 264.57,176.915 265.502,176.475C266.497,176.005 267.031,175.483 267.115,176.588C267.142,176.942 266.69,177.167 266.556,177.497C266.427,177.816 266.42,178.173 266.338,178.508C266.262,178.82 266.249,179.163 266.084,179.438C265.999,179.58 265.771,179.562 265.642,179.666C265.527,179.759 265.499,179.944 265.369,180.017C265.325,180.043 263.528,180.65 263.519,180.644C263.168,180.396 263.121,179.846 263.129,179.417C263.135,179.088 263.55,178.855 263.556,178.526Z" style="fill:rgb(34,60,14);"/>
            <path d="M159.468,119.533C159.431,119.084 158.616,119.108 159.293,117.387C159.315,117.33 159.559,116.71 159.596,116.676C159.71,116.568 160.286,116.029 161.544,116.407C162.947,116.828 162.481,119.382 161.647,119.706C160.305,120.229 159.584,119.542 159.468,119.533Z" style="fill:rgb(154,208,91);"/>
            <path d="M141.544,198.759C141.328,198.972 141.422,199.019 141.221,199.218C140.846,199.587 140.784,199.497 140.759,199.533C140.569,199.809 140.549,200.178 140.365,200.458C140.119,200.831 139.829,201.183 139.485,201.468C138.564,202.232 138.447,201.978 137.303,201.585C137.182,201.544 136.925,201.653 136.925,201.526C136.925,201.494 137.662,199.627 137.699,199.568C137.829,199.361 138.095,199.262 138.225,199.054C138.286,199.025 138.674,198.656 139.486,198.448C140.848,198.098 141.383,198.734 141.544,198.759Z" style="fill:rgb(40,74,22);"/>
            <path d="M181.296,116.562C181.558,116.731 181.429,117.243 181.691,117.412C182.087,117.668 182.157,117.127 182.564,117.382C183.231,117.798 182.857,118.14 183.523,118.556C183.344,118.957 182.642,118.938 182.463,119.339C182.284,119.741 182.717,120.232 182.59,120.653C182.448,121.122 182.2,121.834 181.71,121.829C181.143,121.823 180.827,121.096 180.5,120.632C179.969,119.88 180.015,119.547 180.028,119.445C180.062,119.196 180.121,119.234 181.296,116.562Z" style="fill:rgb(123,180,67);"/>
            <path d="M120.497,231.502L119.325,232.35C118.907,232.552 118.994,232.662 118.588,232.858C118.05,233.118 118.019,232.984 117.464,233.248C117.464,233.248 115.99,234.431 115.862,234.533C115.458,233.929 115.054,233.324 114.65,232.719C117.514,230.343 118.428,231.045 120.497,231.502Z" style="fill:rgb(126,153,103);"/>
            <path d="M262.347,198.693C262.79,198.657 263.116,198.17 263.559,198.134C263.747,198.119 263.725,198.157 265.778,199.13C266.554,200.429 266.65,200.398 266.61,200.522C266.071,202.191 264.685,201.718 264.503,201.656C263.398,201.278 263.702,200.95 262.85,199.387C262.713,199.136 262.483,198.944 262.347,198.693Z" style="fill:rgb(41,62,12);"/>
            <path d="M286.549,233.207C286.78,233.418 287.111,233.497 287.341,233.708C287.51,233.862 289.508,235.69 287.513,236.562C287.231,236.685 283.666,235.567 284.929,233.584C285.204,233.152 285.4,233.106 285.456,233.093C286.007,232.965 285.993,233.336 286.549,233.207Z" style="fill:rgb(25,54,8);"/>
            <path d="M198.501,88.494C199.229,89.46 199.248,89.44 199.287,89.537C199.401,89.828 199.3,90.176 199.415,90.467C199.257,90.628 199.204,90.873 199.046,91.034C198.442,91.652 197.629,91.637 197.496,91.635C197.333,91.632 196.055,91.608 195.849,90.445C195.785,90.079 196.554,88.53 197.484,88.388C197.821,88.337 198.165,88.546 198.501,88.494Z" style="fill:rgb(161,215,103);"/>
            <path d="M210.5,95.258C210.376,95.558 210.374,95.899 210.25,96.198C210.177,96.373 209.97,96.478 209.919,96.661C209.853,96.901 210.087,97.227 209.916,97.407C208.953,98.422 208.769,98.074 207.379,97.94C207.043,97.908 206.495,98.205 206.367,97.893C206.254,97.617 207.088,95.711 207.49,95.489C207.786,95.326 208.173,95.369 208.503,95.444C208.897,95.534 209.194,96.007 209.596,95.969C209.978,95.934 210.118,95.293 210.5,95.258Z" style="fill:rgb(122,186,69);"/>
            <path d="M208.157,128.088C208.34,127.997 208.387,127.727 208.569,127.637C210.038,126.909 210.417,128.366 210.459,128.527C210.541,128.84 210.831,129.198 210.664,129.475C210.511,129.73 210.054,129.51 209.789,129.645C209.367,129.86 209.127,130.538 208.655,130.5C208.163,130.461 207.985,129.595 207.965,129.5C207.815,128.774 208.306,128.811 208.157,128.088Z" style="fill:rgb(39,137,45);"/>
            <path d="M208.42,87.905C208.427,88.05 208.646,88.13 208.652,88.275C208.711,89.652 208.892,90.053 207.538,90.295C207.36,90.327 204.654,90.213 207.49,88.028C207.738,87.837 208.172,88.096 208.42,87.905Z" style="fill:rgb(120,178,65);"/>
            <path d="M198.501,88.494C199.206,88.334 199.911,88.174 200.616,88.013C200.216,88.831 199.815,89.649 199.415,90.467C199.3,90.176 199.401,89.828 199.287,89.537C199.248,89.44 199.229,89.46 198.501,88.494Z" style="fill:rgb(138,192,80);"/>
            <path d="M231.493,124.451C231.654,124.373 233.5,123.474 233.5,123.474C233.681,123.437 233.926,123.508 234.021,123.667C234.163,123.903 234.196,124.228 234.109,124.49C233.91,125.091 233.659,124.93 233.41,125.51C233.203,125.991 233.449,126.029 233.241,126.513C233.179,126.42 232.775,126.263 232.536,125.459C232.468,125.23 232.624,124.913 232.453,124.747C232.212,124.515 231.734,124.683 231.493,124.451Z" style="fill:rgb(91,147,53);"/>
            <path d="M200.016,163.364C200.257,163.709 200.259,164.186 200.5,164.531C201.223,165.567 201.463,165.345 201.472,165.451C201.5,165.771 201.314,167.028 200.785,167.943C200.285,168.807 199.44,169.339 199.44,169.339C199.44,169.339 199.206,168.514 199.33,167.557C199.538,165.956 200.135,163.821 200.016,163.364Z" style="fill:rgb(151,97,56);"/>
            <path d="M161.434,113.211C160.67,113.757 161.277,114.211 160.5,114.767C160.441,114.809 159.668,115.362 159.631,114.5C159.612,114.039 160.066,113.645 160.441,113.376C160.714,113.181 161.161,113.406 161.434,113.211Z" style="fill:rgb(122,174,68);"/>
        </g>
    </g>
</svg>
